<svg id="Layer_1" data-name="Layer 1" xmlns="http://www.w3.org/2000/svg" viewBox="0 0 29.99 29.99"><defs><style>.cls-1{fill:none;}.cls-2{fill:#5e3c32;}</style></defs><path class="cls-1" d="M15.07,0A15,15,0,1,0,30,15,15,15,0,0,0,15.07,0Z"/><path class="cls-2" d="M16.13,23.85H12.67c0-.12,0-.26,0-.39v-8c0-.41,0-.42-.42-.42s-.74,0-1.11,0c-.08,0-.23-.13-.23-.2,0-1.08,0-2.15,0-3.29h1c.78,0,.76,0,.78-.76a10.27,10.27,0,0,1,.13-1.93,3.07,3.07,0,0,1,3-2.58c1.08-.07,2.17,0,3.29,0v3H17.47a3.69,3.69,0,0,0-.47,0,.71.71,0,0,0-.69.7c0,.46,0,.91,0,1.37,0,.21.12.23.29.23H19.1c-.07.82-.14,1.6-.21,2.37,0,.29-.07.57-.08.86s-.11.28-.31.28c-.66,0-1.32,0-2,0-.32,0-.39.1-.39.4q0,4,0,8C16.15,23.55,16.13,23.7,16.13,23.85Z"/></svg>