<?xml version="1.0" encoding="utf-8"?>
<!-- Generator: Adobe Illustrator 25.4.1, SVG Export Plug-In . SVG Version: 6.00 Build 0)  -->
<svg version="1.1" id="Layer_1" xmlns="http://www.w3.org/2000/svg" xmlns:xlink="http://www.w3.org/1999/xlink" x="0px" y="0px"
	 viewBox="0 0 30 30" style="enable-background:new 0 0 30 30;" xml:space="preserve">
<style type="text/css">
	.st0{fill:none;}
	.st1{fill:#5E3C32;}
</style>
<g>
	<g>
		<path class="st0" d="M15,0C6.7,0,0,6.7,0,15s6.7,15,15,15s15-6.7,15-15S23.3,0,15,0L15,0z"/>
	</g>
	<path class="st1" d="M17.9,15 M21.7,9.9c-0.1-0.4-0.4-0.7-0.6-1c-0.3-0.3-0.6-0.5-1-0.6C19.8,8.2,19.3,8,18.5,8
		c-0.9,0-1.2-0.1-3.5-0.1c-2.3,0-2.6,0-3.5,0.1c-0.8,0-1.3,0.2-1.6,0.3c-0.4,0.1-0.7,0.4-1,0.6c-0.3,0.3-0.5,0.6-0.6,1
		C8.2,10.2,8,10.7,8,11.5c0,0.9-0.1,1.2-0.1,3.5c0,2.3,0,2.6,0.1,3.5c0,0.8,0.2,1.3,0.3,1.6c0.1,0.4,0.4,0.7,0.6,1
		c0.3,0.3,0.6,0.5,1,0.6c0.3,0.1,0.8,0.3,1.6,0.3c0.9,0,1.2,0.1,3.5,0.1c2.3,0,2.6,0,3.5-0.1c0.8,0,1.3-0.2,1.6-0.3
		c0.8-0.3,1.3-0.9,1.6-1.6c0.1-0.3,0.3-0.8,0.3-1.6c0-0.9,0.1-1.2,0.1-3.5c0-2.3,0-2.6-0.1-3.5C22,10.7,21.8,10.2,21.7,9.9L21.7,9.9
		z M19.6,11.4c-0.6,0-1-0.5-1-1c0-0.6,0.5-1,1-1c0.6,0,1,0.5,1,1C20.6,11,20.2,11.4,19.6,11.4L19.6,11.4z M19.6,11.4 M23.6,18.6
		c0,0.9-0.2,1.5-0.4,2.1c-0.4,1.2-1.4,2.1-2.5,2.5c-0.5,0.2-1.2,0.4-2.1,0.4c-0.9,0-1.2,0.1-3.6,0.1c-2.3,0-2.6,0-3.6-0.1
		c-0.9,0-1.5-0.2-2.1-0.4c-0.6-0.2-1.1-0.6-1.5-1c-0.4-0.4-0.8-1-1-1.5c-0.2-0.5-0.4-1.2-0.4-2.1c0-0.9-0.1-1.2-0.1-3.6
		s0-2.6,0.1-3.6c0-0.9,0.2-1.5,0.4-2.1c0.2-0.6,0.6-1.1,1-1.5c0.4-0.4,1-0.8,1.5-1c0.5-0.2,1.2-0.4,2.1-0.4c0.9,0,1.2-0.1,3.6-0.1
		s2.6,0,3.6,0.1c0.9,0,1.5,0.2,2.1,0.4c0.6,0.2,1.1,0.6,1.5,1c0.4,0.4,0.8,1,1,1.5c0.2,0.5,0.4,1.2,0.4,2.1c0,0.9,0.1,1.2,0.1,3.6
		S23.6,17.6,23.6,18.6L23.6,18.6z M23.6,18.6 M15,10.6c-2.4,0-4.4,2-4.4,4.4c0,2.4,2,4.4,4.4,4.4c2.4,0,4.4-2,4.4-4.4
		C19.4,12.6,17.4,10.6,15,10.6z M15,17.9c-1.6,0-2.9-1.3-2.9-2.9c0-1.6,1.3-2.9,2.9-2.9s2.9,1.3,2.9,2.9
		C17.9,16.6,16.6,17.9,15,17.9z"/>
</g>
</svg>
