<?xml version="1.0" encoding="utf-8"?>
<!-- Generator: Adobe Illustrator 25.4.1, SVG Export Plug-In . SVG Version: 6.00 Build 0)  -->
<svg version="1.1" id="Layer_1" xmlns="http://www.w3.org/2000/svg" xmlns:xlink="http://www.w3.org/1999/xlink" x="0px" y="0px"
	 viewBox="0 0 181.2 284" style="enable-background:new 0 0 181.2 284;" xml:space="preserve">
<style type="text/css">
	.st0{fill:#5E3C32;}
</style>
<g>
	<g>
		<g>
			<g>
				<path class="st0" d="M0.1,206.5h6.1c8.2,0,12.3,2.3,12.3,6.9c0,1.9-0.7,3.4-2.1,4.5c-1.4,1.1-3.5,1.9-6.3,2.3
					c3.4,0.2,5.9,1.1,7.6,2.4c1.6,1.4,2.5,3.2,2.5,5.2c0,1.8-0.6,3.4-1.7,4.8c-1.1,1.3-2.6,2.1-4.3,2.5c-1.8,0.4-4.1,0.6-7,0.6h-7
					V206.5z M4.5,219.9c0.3,0,0.9,0,1.1,0c3.2,0,5.3-0.5,6.5-1.5c1.2-1,1.7-2.5,1.7-4.7c0-1.5-0.2-2.7-0.7-3.5
					c-0.5-0.9-1.2-1.5-2.1-1.9c-0.9-0.5-2.4-0.7-4.7-0.7c-0.6,0-1.5,0-2,0V219.9z M4.5,234.6c2.5,0,3.8,0,3.8,0
					c2.3,0,4.1-0.3,5.3-1.5c1.2-1.2,1.8-2.9,1.8-5.3c0-2.4-0.7-4.1-2-5.3c-1.3-1.1-3.6-1.7-7-1.7c-0.5,0-1.4,0-1.9,0V234.6z"/>
			</g>
			<g>
				<path class="st0" d="M38,234.8h9.3v1H29.7v-7.5v-2v-1.7v-10.7v-7.2h17.6v1h-9.3h-4v6.3v0.9v5.2h3.1h5.7v1h-5.5h-3.2v3.6v0.6v1.1
					v2v6.5H38z"/>
			</g>
			<g>
				<path class="st0" d="M79.1,206.5l-11,17.6v11.6h-4.3v-11.3l-11.6-17.9h5.5l9.8,16.4l9.8-16.4H79.1z"/>
			</g>
			<g>
				<path class="st0" d="M87.5,210.5c3-2.6,5.7-3.9,10.3-3.9c4.5,0,7.3,1.3,10.4,3.9c3.1,2.6,4.6,6.2,4.6,10.7
					c0,4.4-1.5,7.9-4.4,10.6c-2.9,2.7-5.7,4.1-10.5,4.1c-4.6,0-7.4-1.3-10.4-4.1C84.5,229,83,225.4,83,221
					C83,216.6,84.5,213.1,87.5,210.5z M90.7,231.3c1.9,2.3,3.7,3.4,7.4,3.4c3.3,0,5.4-1.1,7.3-3.4c1.9-2.3,2.3-5.6,2.3-10.1
					c0-4.4-0.4-7.8-2.3-10.1c-1.9-2.4-4.1-3.5-7.7-3.5c-3.5,0-5.2,1.1-7.1,3.4c-1.8,2.3-2.8,5.6-2.8,10.1
					C87.9,225.7,88.8,229,90.7,231.3z"/>
			</g>
			<g>
				<path class="st0" d="M144.8,206.5v5.4v23.8H144l-21.2-26.9v19.8v6.4h-1v-6.4v-15.1v-7h4.5l17.2,22.2v-17.1v-5.1H144.8z"/>
			</g>
			<g>
				<path class="st0" d="M155,206.5c6.9,0,8.3,0,8.3,0c4.4,0,7.9,0.6,10.4,2c2.5,1.3,4.3,3,5.5,5.3c1.2,2.2,1.8,4.8,1.8,7.8
					c0,2.1-0.3,4.1-1,5.8c-0.7,1.7-1.6,3.2-2.7,4.3c-1.1,1.2-2.5,2.1-4,2.7c-1.5,0.6-2.9,1-4.3,1.1c-1.3,0.2-3.3,0.2-5.7,0.2H155
					V206.5z M164,234.8c2.6,0,4.7-0.4,6.4-1.1c1.7-0.7,3.1-2,4.2-4.1c1.1-2,1.7-4.6,1.7-7.8c0-2.5-0.3-4.6-1-6.6
					c-0.6-1.9-1.6-3.5-2.8-4.7s-2.6-2-4-2.5c-1.5-0.4-3.4-0.6-5.7-0.6c-1.1,0-2.4,0-3.4,0.1v27.1H164z"/>
			</g>
		</g>
		<g>
			<g>
				<path class="st0" d="M19.4,254.8h6.1c8.2,0,12.3,2.3,12.3,6.9c0,1.9-0.7,3.4-2.1,4.5c-1.4,1.1-3.5,1.9-6.3,2.3
					c3.4,0.2,5.9,1.1,7.6,2.4c1.6,1.4,2.5,3.2,2.5,5.2c0,1.8-0.6,3.4-1.7,4.8c-1.1,1.3-2.6,2.1-4.3,2.5c-1.8,0.4-4.1,0.6-7,0.6h-7
					V254.8z M23.7,268.1c0.3,0,0.9,0,1.1,0c3.2,0,5.3-0.5,6.5-1.5c1.2-1,1.7-2.5,1.7-4.7c0-1.5-0.2-2.7-0.7-3.5
					c-0.5-0.9-1.2-1.5-2.1-1.9c-0.9-0.5-2.4-0.7-4.7-0.7c-0.6,0-1.5,0-2,0V268.1z M23.7,282.8c2.5,0,3.8,0,3.8,0
					c2.3,0,4.1-0.3,5.3-1.5c1.2-1.2,1.8-2.9,1.8-5.3c0-2.4-0.7-4.1-2-5.3c-1.3-1.1-3.6-1.7-7-1.7c-0.5,0-1.4,0-1.9,0V282.8z"/>
			</g>
			<g>
				<path class="st0" d="M55.1,254.8c2.9,0,5.2,0.2,6.9,0.7c1.8,0.5,3.2,1.2,4.3,2.4c1.1,1.2,1.6,2.6,1.6,4.2c0,1.9-0.7,3.5-2.1,4.8
					c-1.5,1.3-3.6,2.4-6.3,2.8c1.2,0.6,3.2,1.3,6,5c0,0,2.2,2.9,5,9.5h-3.4c-0.3-1.3-4.8-13.9-13-13.9h-1.3v6.1v7.8h-4.3v-7.8v-14.1
					v-7.3H55.1z M56.4,269.1c1.2,0,2.2-0.4,3-0.6c0.9-0.2,1.6-0.8,2.1-1.3c0.5-0.5,1-1.1,1.3-1.9c0.3-0.8,0.5-1.7,0.5-2.9
					c0-2-0.5-3.6-1.6-4.8c-1-1.2-3.4-1.6-6.9-1.6h-1.9v13.2H56.4z"/>
			</g>
			<g>
				<path class="st0" d="M88,283h9.3v1H79.7v-7.5v-2v-1.7V262v-7.2h17.6v1H88h-4v6.3v0.9v5.2h3.1h5.7v1h-5.5H84v3.6v0.6v1.1v2v6.5
					H88z"/>
			</g>
			<g>
				<path class="st0" d="M118.9,273.3h-11.1l-4.2,10.7H102l12.5-29.2h0.9l12.8,29.2h-4.7c-1.6-3.8-2.3-5.4-2.3-5.4L118.9,273.3z
					 M118.5,272.3l-5.3-12.3l-5.2,12.3H118.5z"/>
			</g>
			<g>
				<path class="st0" d="M135.7,254.8c6.9,0,8.3,0,8.3,0c4.4,0,7.9,0.6,10.4,2c2.5,1.3,4.3,3,5.5,5.3c1.2,2.2,1.8,4.8,1.8,7.8
					c0,2.1-0.3,4.1-1,5.8c-0.7,1.7-1.6,3.2-2.7,4.3c-1.1,1.2-2.5,2.1-4,2.7c-1.5,0.6-2.9,1-4.3,1.1c-1.3,0.2-3.3,0.2-5.7,0.2h-8.2
					V254.8z M144.7,283c2.6,0,4.7-0.4,6.4-1.1c1.7-0.7,3.1-2,4.2-4.1c1.1-2,1.7-4.6,1.7-7.8c0-2.5-0.3-4.6-1-6.6
					c-0.6-1.9-1.6-3.5-2.8-4.7c-1.2-1.2-2.6-2-4-2.5c-1.5-0.4-3.4-0.6-5.7-0.6c-1.1,0-2.4,0-3.4,0.1V283H144.7z"/>
			</g>
		</g>
	</g>
	<g>
		<path class="st0" d="M128.9,81.1c-0.1,0-0.1,0-0.2,0c-2.7,0.5-5.3,1.6-7.2,2.4c-0.7,0.3-1.5,0.7-2.3,1.1c-0.5-2-1.6-4.7-3.8-6.6
			c-1-1-2.2-1.7-3.4-2.3c-1.4-0.6-2.7-1-3.9-1.1c-0.4,0-0.9-0.1-1.3-0.1c-1.8,0-3.7,0.3-5.7,1c1.2-3.4,2.2-6.8,3.1-10.5
			c1.9-7.7,3-14.6,3.3-21c0.1-3,0-7-1.1-10.9c-0.6-2.1-1.5-3.9-2.6-5.3c-1.3-1.7-3.2-2.9-5.1-3.3c-0.7-0.2-1.5-0.3-2.4-0.3
			c-1,0-2.1,0.1-3.4,0.4c-1.7,0.4-3.5,1.2-5.1,2.2c-2.7,1.8-5.2,4.3-7.5,7.8c-1.8,2.7-3.5,5.7-5,9.4c-1,2.4-1.9,4.8-2.7,7.2
			c-0.3-1.5-0.7-2.9-1.1-4.4c-0.6-2-1.2-3.6-1.9-5.1c-0.4-0.8-0.9-1.7-1.6-2.5l0,0c-1-1-2-1.5-3-1.6l0,0h0c0,0-0.1,0-0.1,0
			c-0.1,0-0.2,0-0.3,0h-0.1l-0.1,0c0,0-0.1,0-0.1,0c-0.1,0-0.2,0-0.3,0.1c-0.4,0.1-0.7,0.2-1,0.4c-0.6,0.4-1,0.9-1.4,1.3
			c-0.5,0.8-1,1.6-1.4,2.6c-0.6,1.7-1,3.3-1.3,5.3C58.2,50.7,58,54.2,58,58c0.1,5.9,0.6,13.6,3.9,21.1l0,0l0.1,0.2
			c0.1,0.1,0.2,0.3,0.4,0.5c0.3,0.3,0.7,0.5,1.1,0.5c0.5,0,0.9-0.2,1.2-0.6c0.6-0.7,0.6-1.8-0.1-2.5c-1-1-1.5-2.5-1.9-4l0-0.2
			c-0.5-1.8-0.9-3.6-1.1-4.9c-0.5-3.2-0.8-6.6-0.8-10.1c0-3.5,0.3-6.9,0.8-10.1c0.3-1.8,0.7-3.4,1.2-4.8c0.3-0.8,0.6-1.5,0.9-1.9
			c0.2-0.3,0.4-0.4,0.5-0.5c0,0,0.1,0,0,0h0.3l0,0c0.8,0.1,1.7,1.1,2.4,2.6c0.8,1.4,1.3,3,1.7,4.5c0.7,2.8,1.3,5.8,1.9,9.8
			C69.2,62.9,68,68.4,67,74.5c-1.2,6.9-2.1,13.9-2.6,20.8c-0.7,8-0.9,14.7-0.6,21.1l0,0.1c0.1,1.7,0.2,3.5,0.4,5.2
			c0.1,0.9,0.2,1.7,0.4,2.7l0,0.1c0.2,0.8,0.4,1.8,0.9,2.7c0.1,0.3,0.3,0.6,0.6,0.9l0,0l0,0c0.2,0.2,0.6,0.6,1.2,0.8l0,0
			c0.2,0.1,0.5,0.1,0.7,0.1c0.2,0,0.5,0,0.8-0.1c0.5-0.1,0.9-0.4,1.1-0.6c0.9-0.8,1.3-1.7,1.6-2.5l0.1-0.3c0.7-1.6,1.1-3.3,1.4-5.3
			c0.6-3.4,1-6.6,1.4-10.5c0.3-4,0.6-7.4,0.7-10.5c0.3-6.8,0.3-13.8,0-21c-0.2-7.2-0.7-13.6-1.5-19.5c0.2-0.6,0.4-1.2,0.5-1.8
			c0.2-0.6,0.4-1.3,0.6-1.9c1.1-3.6,2.3-6.7,3.5-9.6c1.5-3.4,3-6.3,4.7-8.8c2.1-3.1,4.3-5.3,6.6-6.8c1.2-0.8,2.6-1.4,4-1.7
			c0.8-0.2,1.6-0.3,2.3-0.3c0.6,0,1.2,0.1,1.8,0.2l0,0c1.2,0.3,2.3,1,3.1,2.1c0.7,1,1.3,2.4,1.7,4c0.6,2.7,0.9,5.7,0.8,9.8
			c-0.1,5.9-1,12.3-2.8,20.1c-1,4.4-2.3,8.9-3.8,13.4c-0.9,0.5-1.8,1-3,1.8c-2.2,1.5-4.2,3.1-5.9,4.9c-2.1,2.2-3.6,4.2-4.7,6.3
			c-0.7,1.4-1.1,2.7-1.3,4c-0.2,1.6,0.1,3.3,0.9,4.6l0.2,0.3h0.1c0.4,0.4,1,0.8,1.5,1l0,0c0.3,0.1,0.7,0.1,1,0.1c0.3,0,0.7,0,1-0.1
			c1.1-0.3,1.9-1,2.7-1.7c1.4-1.3,2.5-2.8,3.4-4.3c2-3.2,3.6-6.5,4.9-9.4c0.8-1.9,1.7-4,2.5-6.4c0.2-0.1,0.3-0.1,0.5-0.2
			c0.3-0.1,0.5-0.2,0.7-0.3c2-0.7,3.8-1.1,5.4-1.1c0.4,0,0.8,0,1.2,0.1c1,0.1,2,0.4,3.1,0.9c0.9,0.5,1.9,1.1,2.7,1.9
			c1.4,1.4,2.3,3.5,2.7,6c0,0.1,0,0.2,0.1,0.3c-0.2,0.1-0.4,0.2-0.6,0.3c-0.3,0.2-0.6,0.4-0.9,0.5c-4,2.4-8,5.2-12.2,8.6
			c-7.9,6.3-15,13.4-21.3,21.1c-3.6,4.5-6.4,8.7-8.6,12.7c-1.4,2.6-2.4,4.9-3.1,7.2c-1,3-1.5,5.6-1.5,8.1c0,1.5,0.2,2.9,0.5,4.2
			c0,0.3,0.1,0.6,0.2,0.9l0.1,0.2l0,0c0.1,0.1,0.1,0.3,0.2,0.4c0.1,0.2,0.1,0.3,0.2,0.5c0.2,0.7,0.6,1.4,1,2c1,1.5,2.5,2.6,4,3.1
			c0.6,0.2,1.3,0.3,2,0.3c0.9,0,1.8-0.1,2.7-0.4c2.8-0.8,5.1-2.4,7-3.8c2-1.6,3.9-3.2,5.7-5.1c3.3-3.4,6.5-7.2,9.7-11.7
			c2.9-4,5.5-8.2,8.1-12.9c2.9-5.3,5-9.7,6.5-13.9c2-5.4,3.2-10.4,3.6-15.2c0.2-2.1,0.1-4.1-0.1-5.8c0.9-0.5,1.9-1.1,2.9-1.5
			c2.4-1.2,4.5-2,6.5-2.4l0,0c0.6-0.2,1-0.8,0.9-1.4C130,81.5,129.4,81.1,128.9,81.1z M75.5,152.1c-0.6-0.2-1.2-0.6-1.7-1.3
			c-0.5-0.7-0.9-1.8-1.1-2.8c-0.3-0.9-0.4-1.9-0.4-3.2c0-2,0.4-4.3,1.2-6.8c0.6-2,1.5-4.1,2.8-6.6c2-3.8,4.6-7.8,8-12.2
			c3-3.7,6.2-7.5,9.7-11c3.9-4,7.3-7.1,10.7-9.9c4-3.4,7.9-6.3,11.6-8.7c0.1,0,0.1-0.1,0.2-0.1c0,1.1-0.1,2.2-0.3,3.5
			c-0.7,5-2.4,9.9-4,14c-1.8,4.6-3.9,9.1-6.2,13.4c-2.4,4.3-5,8.5-7.8,12.5c-3,4.2-6.1,8-9.2,11.3c-1.6,1.7-3.3,3.3-5.2,4.8
			c-1.5,1.2-3.6,2.6-5.7,3.2c-0.6,0.2-1.1,0.3-1.6,0.3C76.1,152.2,75.8,152.2,75.5,152.1z M67.5,95.5c0.6-6.9,1.5-13.8,2.6-20.5
			c0.6-3,1.1-5.5,1.6-7.8c0.3,3.6,0.5,7.2,0.6,11.1c0.2,6.7,0.2,13.7-0.1,20.8c-0.1,3.1-0.3,6.3-0.7,10.3c-0.4,3.9-0.8,7.2-1.4,10.2
			c-0.3,1.6-0.7,3.3-1.3,4.7c-0.2,0.5-0.4,0.9-0.6,1.2c-0.2-0.5-0.4-1.1-0.5-1.8c-0.1-0.6-0.2-1.1-0.3-1.7c0-0.2-0.1-0.5-0.1-0.7
			c-0.2-1.7-0.3-3.5-0.4-5C66.7,110,66.9,103.2,67.5,95.5z M84.6,94.9c0.1-0.9,0.4-2,1-3.1c0.9-1.8,2.3-3.7,4.2-5.7
			c1.7-1.8,3.7-3.5,5.8-4.9c-0.3,0.9-0.7,1.8-1,2.6c-1.1,2.6-2.5,5.9-4.4,9.1c-0.8,1.3-1.7,2.7-2.8,3.8c-0.5,0.4-1,0.9-1.5,1
			c-0.1,0-0.2,0-0.3,0c-0.1,0-0.3,0-0.5-0.2C84.6,96.7,84.5,95.8,84.6,94.9z"/>
	</g>
	<path class="st0" d="M90.6,2.6c34.2,0,62,27.8,62,62v51.6c0,34.2-27.8,62-62,62c-34.2,0-62-27.8-62-62V64.5
		C28.6,30.3,56.4,2.6,90.6,2.6 M90.6,0C55,0,26.1,29,26.1,64.5v51.6c0,35.6,29,64.5,64.5,64.5c35.6,0,64.5-29,64.5-64.5V64.5
		C155.1,29,126.2,0,90.6,0L90.6,0z"/>
</g>
</svg>
