<svg id="Layer_1" data-name="Layer 1" xmlns="http://www.w3.org/2000/svg" viewBox="0 0 29.99 29.99"><defs><style>.cls-1{fill:none;}.cls-2{fill:#5e3c32;}</style></defs><circle class="cls-1" cx="14.99" cy="14.99" r="14.99" transform="translate(-3.07 26.11) rotate(-76.6)"/><path class="cls-2" d="M15,7.83c2.37,0,4.75,0,7.12,0A3.66,3.66,0,0,1,23.25,8a1.62,1.62,0,0,1,1,1.12.51.51,0,0,1-.16.58,3.06,3.06,0,0,1-.29.21c-2.76,1.75-5.53,3.49-8.28,5.25a.9.9,0,0,1-1.1,0q-4.15-2.67-8.33-5.3a1.31,1.31,0,0,1-.24-.17.42.42,0,0,1-.16-.48A1.73,1.73,0,0,1,7.33,7.87q.57,0,1.14,0Zm7,14.33a5.48,5.48,0,0,0,.7,0,1.74,1.74,0,0,0,1.42-1c.24-.5.17-.72-.3-1l-3.65-2.3c-.95-.6-1.9-1.2-2.84-1.81A.59.59,0,0,0,16.7,16l-1.32.85a.57.57,0,0,1-.78,0l-1.15-.73a.81.81,0,0,0-.92,0L8,19,6,20.21a.48.48,0,0,0-.29.54,1.6,1.6,0,0,0,1,1.23,3.09,3.09,0,0,0,1,.17H22.05Zm-16.33-11v7.69l6-3.85Zm18.55,7.68V11.16l-6,3.84Z"/></svg>