<svg id="Layer_1" data-name="Layer 1" xmlns="http://www.w3.org/2000/svg" viewBox="0 0 29.99 30"><defs><style>.cls-1{fill:none;}.cls-2{fill:#5e3c32;}</style></defs><path class="cls-1" d="M26.61,5.52A14.71,14.71,0,0,0,16.37.06L16.09,0H13.86c-.19,0-.37.08-.56.1a15,15,0,0,0,.28,29.84,2.3,2.3,0,0,1,.28.06h2.23l.61-.1a14.84,14.84,0,0,0,11.15-7.17A14.15,14.15,0,0,0,30,16.1,14.6,14.6,0,0,0,26.61,5.52Z"/><path class="cls-2" d="M13,8c0,.75,0,1.5,0,2.24a1,1,0,0,1-.46.91c-.31.18-.63.33-1,.48s-.5.21-.75.31a.77.77,0,0,0-.55.85,5.45,5.45,0,0,0,.28,1.32A20.28,20.28,0,0,0,13,19a4.48,4.48,0,0,0,1.27,1.26,1.48,1.48,0,0,0,1.49.14l1.57-.69a.89.89,0,0,1,1.27.23c.93,1,1.83,2,2.75,3a1,1,0,0,1-.11,1.47,5.3,5.3,0,0,1-2.62,1.28,6.93,6.93,0,0,1-5.89-1.48,14.24,14.24,0,0,1-3.47-4.17A24.19,24.19,0,0,1,7,15.1a12.83,12.83,0,0,1-.66-5.6A5.29,5.29,0,0,1,7.41,6.69a4.87,4.87,0,0,1,4.74-1.82.8.8,0,0,1,.75.9V8Zm11.12,3.16a8,8,0,0,0-5.85-5.31,10.83,10.83,0,0,0-1.89-.21.45.45,0,0,0-.52.44.48.48,0,0,0,.46.53l.24,0A7,7,0,0,1,21.73,9a7.15,7.15,0,0,1,.15,9.25c-.19.22-.39.42-.57.64a.47.47,0,0,0,0,.68.49.49,0,0,0,.69,0l.14-.13a8.08,8.08,0,0,0,2.36-5.54A8,8,0,0,0,24.07,11.14ZM17.61,8.42a6.86,6.86,0,0,0-1.27-.14.48.48,0,0,0-.51.46.51.51,0,0,0,.46.52l.26,0a4.47,4.47,0,0,1,4.16,5.52,4.22,4.22,0,0,1-1.08,2l-.14.16a.5.5,0,1,0,.74.66,5.38,5.38,0,0,0,1.62-3.69A5.54,5.54,0,0,0,17.61,8.42ZM16.45,11c-.35,0-.57.15-.59.44s.17.5.53.55h.12a1.78,1.78,0,0,1,1.65,1.77A1.84,1.84,0,0,1,17.68,15a.52.52,0,0,0,0,.75c.22.2.5.16.75-.11a2.67,2.67,0,0,0,.74-1.81A2.81,2.81,0,0,0,16.45,11Z"/></svg>